<svg version="1.1" xmlns="http://www.w3.org/2000/svg" xmlns:xlink="http://www.w3.org/1999/xlink" width="1047.4130859375" height="728"><defs/><g><g transform="translate(-430,-6) scale(1,1)"><rect fill="#C0C0C0" stroke="none" x="1194" y="167" width="228" height="280" opacity="0.2"/></g><g transform="translate(-430,-6) scale(1,1)"><rect fill="#ffffff" stroke="none" x="1187" y="160" width="228" height="280"/></g><g transform="translate(-430,-6) scale(1,1)"><path fill="none" stroke="#000000" d="M 1187 160 L 1415 160 L 1415 440 L 1187 440 L 1187 160 Z Z" stroke-miterlimit="10"/></g><g transform="translate(-430,-6) scale(1,1)"><path fill="none" stroke="#000000" d="M 1187 185 L 1415 185" stroke-miterlimit="10"/></g><g transform="translate(-430,-6) scale(1,1)"><path fill="none" stroke="#000000" d="M 1187 343 L 1415 343" stroke-miterlimit="10"/></g><g transform="translate(-430,-6) scale(1,1)"><g><path fill="none" stroke="none"/><text fill="#000000" stroke="none" font-family="Arial" font-size="13px" font-style="normal" font-weight="bold" text-decoration="none" x="1281.12548828125" y="179.5">Monde</text></g></g><g transform="translate(-430,-6) scale(1,1)"><g><path fill="none" stroke="none"/><text fill="#000000" stroke="none" font-family="Arial" font-size="13px" font-style="normal" font-weight="normal" text-decoration="none" x="1192" y="202.5">#pointArray: QVector&lt;QVector3D&gt;</text></g></g><g transform="translate(-430,-6) scale(1,1)"><g><path fill="none" stroke="none"/><text fill="#000000" stroke="none" font-family="Arial" font-size="13px" font-style="normal" font-weight="normal" text-decoration="none" x="1192" y="217.5">#nbX: int</text></g></g><g transform="translate(-430,-6) scale(1,1)"><g><path fill="none" stroke="none"/><text fill="#000000" stroke="none" font-family="Arial" font-size="13px" font-style="normal" font-weight="normal" text-decoration="none" x="1192" y="232.5">#nbY: int</text></g></g><g transform="translate(-430,-6) scale(1,1)"><g><path fill="none" stroke="none"/><text fill="#000000" stroke="none" font-family="Arial" font-size="13px" font-style="normal" font-weight="normal" text-decoration="none" x="1192" y="247.5">#VBO: bool</text></g></g><g transform="translate(-430,-6) scale(1,1)"><g><path fill="none" stroke="none"/><text fill="#000000" stroke="none" font-family="Arial" font-size="13px" font-style="normal" font-weight="normal" text-decoration="none" x="1192" y="262.5">+vertexArray: QVector&lt;GLfloat&gt;</text></g></g><g transform="translate(-430,-6) scale(1,1)"><g><path fill="none" stroke="none"/><text fill="#000000" stroke="none" font-family="Arial" font-size="13px" font-style="normal" font-weight="normal" text-decoration="none" x="1192" y="277.5">+indiceArray: QVector&lt;GLuint&gt;</text></g></g><g transform="translate(-430,-6) scale(1,1)"><g><path fill="none" stroke="none"/><text fill="#000000" stroke="none" font-family="Arial" font-size="13px" font-style="normal" font-weight="normal" text-decoration="none" x="1192" y="292.5">+colorArray: QVector&lt;GLfloat&gt;</text></g></g><g transform="translate(-430,-6) scale(1,1)"><g><path fill="none" stroke="none"/><text fill="#000000" stroke="none" font-family="Arial" font-size="13px" font-style="normal" font-weight="normal" text-decoration="none" x="1192" y="307.5">+vertexBuffer: QGLBuffer</text></g></g><g transform="translate(-430,-6) scale(1,1)"><g><path fill="none" stroke="none"/><text fill="#000000" stroke="none" font-family="Arial" font-size="13px" font-style="normal" font-weight="normal" text-decoration="none" x="1192" y="322.5">+indiceBuffer: QGLBuffer</text></g></g><g transform="translate(-430,-6) scale(1,1)"><g><path fill="none" stroke="none"/><text fill="#000000" stroke="none" font-family="Arial" font-size="13px" font-style="normal" font-weight="normal" text-decoration="none" x="1192" y="337.5">+colorBuffer: QGLBuffer</text></g></g><g transform="translate(-430,-6) scale(1,1)"><g><path fill="none" stroke="none"/><text fill="#000000" stroke="none" font-family="Arial" font-size="13px" font-style="normal" font-weight="normal" text-decoration="none" x="1192" y="360.5">+ajouterPoint(point: QStringList)</text></g></g><g transform="translate(-430,-6) scale(1,1)"><g><path fill="none" stroke="none"/><text fill="#000000" stroke="none" font-family="Arial" font-size="13px" font-style="normal" font-weight="normal" text-decoration="none" x="1192" y="375.5">+trianguler()</text></g></g><g transform="translate(-430,-6) scale(1,1)"><g><path fill="none" stroke="none"/><text fill="#000000" stroke="none" font-family="Arial" font-size="13px" font-style="normal" font-weight="normal" text-decoration="none" x="1192" y="390.5">+recentrer()</text></g></g><g transform="translate(-430,-6) scale(1,1)"><g><path fill="none" stroke="none"/><text fill="#000000" stroke="none" font-family="Arial" font-size="13px" font-style="normal" font-weight="normal" text-decoration="none" x="1192" y="405.5">+segmenter(float d)</text></g></g><g transform="translate(-430,-6) scale(1,1)"><g><path fill="none" stroke="none"/><text fill="#000000" stroke="none" font-family="Arial" font-size="13px" font-style="normal" font-weight="normal" text-decoration="none" x="1192" y="420.5">#ajouterTriangle(i, x, y, z: int)</text></g></g><g transform="translate(-430,-6) scale(1,1)"><g><path fill="none" stroke="none"/><text fill="#000000" stroke="none" font-family="Arial" font-size="13px" font-style="normal" font-weight="normal" text-decoration="none" x="1192" y="435.5">+trierTriangle(i, a, b, c: int)</text></g></g><g transform="translate(-430,-6) scale(1,1)"><rect fill="#C0C0C0" stroke="none" x="486" y="239" width="224" height="80" opacity="0.2"/></g><g transform="translate(-430,-6) scale(1,1)"><rect fill="#ffffff" stroke="none" x="479" y="232" width="224" height="80"/></g><g transform="translate(-430,-6) scale(1,1)"><path fill="none" stroke="#000000" d="M 479 232 L 703 232 L 703 312 L 479 312 L 479 232 Z Z" stroke-miterlimit="10"/></g><g transform="translate(-430,-6) scale(1,1)"><path fill="none" stroke="#000000" d="M 479 257 L 703 257" stroke-miterlimit="10"/></g><g transform="translate(-430,-6) scale(1,1)"><path fill="none" stroke="#000000" d="M 479 280 L 703 280" stroke-miterlimit="10"/></g><g transform="translate(-430,-6) scale(1,1)"><g><path fill="none" stroke="none"/><text fill="#000000" stroke="none" font-family="Arial" font-size="13px" font-style="normal" font-weight="bold" text-decoration="none" x="550.543212890625" y="251.5">MainWindows</text></g></g><g transform="translate(-430,-6) scale(1,1)"><g><path fill="none" stroke="none"/><text fill="#000000" stroke="none" font-family="Arial" font-size="13px" font-style="normal" font-weight="normal" text-decoration="none" x="484" y="274.5">+viewer: MondeViewer*</text></g></g><g transform="translate(-430,-6) scale(1,1)"><rect fill="#C0C0C0" stroke="none" x="831" y="226" width="267.66064453125" height="505" opacity="0.2"/></g><g transform="translate(-430,-6) scale(1,1)"><rect fill="#ffffff" stroke="none" x="824" y="219" width="267.66064453125" height="505"/></g><g transform="translate(-430,-6) scale(1,1)"><path fill="none" stroke="#000000" d="M 824 219 L 1091.66064453125 219 L 1091.66064453125 724 L 824 724 L 824 219 Z Z" stroke-miterlimit="10"/></g><g transform="translate(-430,-6) scale(1,1)"><path fill="none" stroke="#000000" d="M 824 244 L 1091.66064453125 244" stroke-miterlimit="10"/></g><g transform="translate(-430,-6) scale(1,1)"><path fill="none" stroke="#000000" d="M 824 492 L 1091.66064453125 492" stroke-miterlimit="10"/></g><g transform="translate(-430,-6) scale(1,1)"><g><path fill="none" stroke="none"/><text fill="#000000" stroke="none" font-family="Arial" font-size="13px" font-style="normal" font-weight="bold" text-decoration="none" x="918.087646484375" y="238.5">MondeViewer</text></g></g><g transform="translate(-430,-6) scale(1,1)"><g><path fill="none" stroke="none"/><text fill="#000000" stroke="none" font-family="Arial" font-size="13px" font-style="normal" font-weight="normal" text-decoration="none" x="829" y="261.5">#heureInondation: QTime</text></g></g><g transform="translate(-430,-6) scale(1,1)"><g><path fill="none" stroke="none"/><text fill="#000000" stroke="none" font-family="Arial" font-size="13px" font-style="normal" font-weight="normal" text-decoration="none" x="829" y="276.5">#eauMonte: bool</text></g></g><g transform="translate(-430,-6) scale(1,1)"><g><path fill="none" stroke="none"/><text fill="#000000" stroke="none" font-family="Arial" font-size="13px" font-style="normal" font-weight="normal" text-decoration="none" x="829" y="291.5">#affSol: bool</text></g></g><g transform="translate(-430,-6) scale(1,1)"><g><path fill="none" stroke="none"/><text fill="#000000" stroke="none" font-family="Arial" font-size="13px" font-style="normal" font-weight="normal" text-decoration="none" x="829" y="306.5">#affEau: bool</text></g></g><g transform="translate(-430,-6) scale(1,1)"><g><path fill="none" stroke="none"/><text fill="#000000" stroke="none" font-family="Arial" font-size="13px" font-style="normal" font-weight="normal" text-decoration="none" x="829" y="321.5">#affMNT: bool</text></g></g><g transform="translate(-430,-6) scale(1,1)"><g><path fill="none" stroke="none"/><text fill="#000000" stroke="none" font-family="Arial" font-size="13px" font-style="normal" font-weight="normal" text-decoration="none" x="829" y="336.5">#affVagues: bool</text></g></g><g transform="translate(-430,-6) scale(1,1)"><g><path fill="none" stroke="none"/><text fill="#000000" stroke="none" font-family="Arial" font-size="13px" font-style="normal" font-weight="normal" text-decoration="none" x="829" y="351.5">#affCiel: bool</text></g></g><g transform="translate(-430,-6) scale(1,1)"><g><path fill="none" stroke="none"/><text fill="#000000" stroke="none" font-family="Arial" font-size="13px" font-style="normal" font-weight="normal" text-decoration="none" x="829" y="366.5">#affTexturesMNT: bool</text></g></g><g transform="translate(-430,-6) scale(1,1)"><g><path fill="none" stroke="none"/><text fill="#000000" stroke="none" font-family="Arial" font-size="13px" font-style="normal" font-weight="normal" text-decoration="none" x="829" y="381.5">#hEau: GLfloat</text></g></g><g transform="translate(-430,-6) scale(1,1)"><g><path fill="none" stroke="none"/><text fill="#000000" stroke="none" font-family="Arial" font-size="13px" font-style="normal" font-weight="normal" text-decoration="none" x="829" y="396.5">#hSol: GLfloat</text></g></g><g transform="translate(-430,-6) scale(1,1)"><g><path fill="none" stroke="none"/><text fill="#000000" stroke="none" font-family="Arial" font-size="13px" font-style="normal" font-weight="normal" text-decoration="none" x="829" y="411.5">#vitesse: GLfloat</text></g></g><g transform="translate(-430,-6) scale(1,1)"><g><path fill="none" stroke="none"/><text fill="#000000" stroke="none" font-family="Arial" font-size="13px" font-style="normal" font-weight="normal" text-decoration="none" x="829" y="426.5">#precision: GLfloat</text></g></g><g transform="translate(-430,-6) scale(1,1)"><g><path fill="none" stroke="none"/><text fill="#000000" stroke="none" font-family="Arial" font-size="13px" font-style="normal" font-weight="normal" text-decoration="none" x="829" y="441.5">#rayon: GLfloat</text></g></g><g transform="translate(-430,-6) scale(1,1)"><g><path fill="none" stroke="none"/><text fill="#000000" stroke="none" font-family="Arial" font-size="13px" font-style="normal" font-weight="normal" text-decoration="none" x="829" y="456.5">#tailleEau: GLfloat</text></g></g><g transform="translate(-430,-6) scale(1,1)"><g><path fill="none" stroke="none"/><text fill="#000000" stroke="none" font-family="Arial" font-size="13px" font-style="normal" font-weight="normal" text-decoration="none" x="829" y="471.5">#centre: Vec</text></g></g><g transform="translate(-430,-6) scale(1,1)"><g><path fill="none" stroke="none"/><text fill="#000000" stroke="none" font-family="Arial" font-size="13px" font-style="normal" font-weight="normal" text-decoration="none" x="829" y="486.5">+repetition: int</text></g></g><g transform="translate(-430,-6) scale(1,1)"><g><path fill="none" stroke="none"/><text fill="#000000" stroke="none" font-family="Arial" font-size="13px" font-style="normal" font-weight="normal" text-decoration="none" x="829" y="509.5">#loadTexture(side: int, src: QString): bool</text></g></g><g transform="translate(-430,-6) scale(1,1)"><g><path fill="none" stroke="none"/><text fill="#000000" stroke="none" font-family="Arial" font-size="13px" font-style="normal" font-weight="normal" text-decoration="none" x="829" y="524.5">#drawLight()</text></g></g><g transform="translate(-430,-6) scale(1,1)"><g><path fill="none" stroke="none"/><text fill="#000000" stroke="none" font-family="Arial" font-size="13px" font-style="normal" font-weight="normal" text-decoration="none" x="829" y="539.5">#drawSol()</text></g></g><g transform="translate(-430,-6) scale(1,1)"><g><path fill="none" stroke="none"/><text fill="#000000" stroke="none" font-family="Arial" font-size="13px" font-style="normal" font-weight="normal" text-decoration="none" x="829" y="554.5">#drawCiel()</text></g></g><g transform="translate(-430,-6) scale(1,1)"><g><path fill="none" stroke="none"/><text fill="#000000" stroke="none" font-family="Arial" font-size="13px" font-style="normal" font-weight="normal" text-decoration="none" x="829" y="569.5">#drawMNT()</text></g></g><g transform="translate(-430,-6) scale(1,1)"><g><path fill="none" stroke="none"/><text fill="#000000" stroke="none" font-family="Arial" font-size="13px" font-style="normal" font-weight="normal" text-decoration="none" x="829" y="584.5">#drawMNT_VBO()</text></g></g><g transform="translate(-430,-6) scale(1,1)"><g><path fill="none" stroke="none"/><text fill="#000000" stroke="none" font-family="Arial" font-size="13px" font-style="normal" font-weight="normal" text-decoration="none" x="829" y="599.5">#drawEau()</text></g></g><g transform="translate(-430,-6) scale(1,1)"><g><path fill="none" stroke="none"/><text fill="#000000" stroke="none" font-family="Arial" font-size="13px" font-style="normal" font-weight="normal" text-decoration="none" x="829" y="614.5">#drawEauStatique()</text></g></g><g transform="translate(-430,-6) scale(1,1)"><g><path fill="none" stroke="none"/><text fill="#000000" stroke="none" font-family="Arial" font-size="13px" font-style="normal" font-weight="normal" text-decoration="none" x="829" y="629.5">#drawIsoligne()</text></g></g><g transform="translate(-430,-6) scale(1,1)"><g><path fill="none" stroke="none"/><text fill="#000000" stroke="none" font-family="Arial" font-size="13px" font-style="normal" font-weight="normal" text-decoration="none" x="829" y="644.5">+segmenter()</text></g></g><g transform="translate(-430,-6) scale(1,1)"><g><path fill="none" stroke="none"/><text fill="#000000" stroke="none" font-family="Arial" font-size="13px" font-style="normal" font-weight="normal" text-decoration="none" x="829" y="659.5">+monteeDesEaux()</text></g></g><g transform="translate(-430,-6) scale(1,1)"><g><path fill="none" stroke="none"/><text fill="#000000" stroke="none" font-family="Arial" font-size="13px" font-style="normal" font-weight="normal" text-decoration="none" x="829" y="674.5">+resetAnimation()</text></g></g><g transform="translate(-430,-6) scale(1,1)"><g><path fill="none" stroke="none"/><text fill="#000000" stroke="none" font-family="Arial" font-size="13px" font-style="normal" font-weight="normal" text-decoration="none" x="829" y="689.5">+resetView()</text></g></g><g transform="translate(-430,-6) scale(1,1)"><g><path fill="none" stroke="none"/><text fill="#000000" stroke="none" font-family="Arial" font-size="13px" font-style="normal" font-weight="normal" text-decoration="none" x="829" y="704.5">+lancerAnimation()</text></g></g><g transform="translate(-430,-6) scale(1,1)"><g><path fill="none" stroke="none"/><text fill="#000000" stroke="none" font-family="Arial" font-size="13px" font-style="normal" font-weight="normal" text-decoration="none" x="829" y="719.5">+stopperAnimation()</text></g></g><g transform="translate(-430,-6) scale(1,1)"><rect fill="#C0C0C0" stroke="none" x="540" y="359" width="117.34814453125" height="44" opacity="0.2"/></g><g transform="translate(-430,-6) scale(1,1)"><rect fill="#ffffff" stroke="none" x="533" y="352" width="117.34814453125" height="44"/></g><g transform="translate(-430,-6) scale(1,1)"><path fill="none" stroke="#000000" d="M 533 352 L 650.34814453125 352 L 650.34814453125 396 L 533 396 L 533 352 Z Z" stroke-miterlimit="10"/></g><g transform="translate(-430,-6) scale(1,1)"><path fill="none" stroke="#000000" d="M 533 377 L 650.34814453125 377" stroke-miterlimit="10"/></g><g transform="translate(-430,-6) scale(1,1)"><path fill="none" stroke="#000000" d="M 533 387 L 650.34814453125 387" stroke-miterlimit="10"/></g><g transform="translate(-430,-6) scale(1,1)"><g><path fill="none" stroke="none"/><text fill="#000000" stroke="none" font-family="Arial" font-size="13px" font-style="normal" font-weight="bold" text-decoration="none" x="540.010498046875" y="371.5">QOpenGLTexture</text></g></g><g transform="translate(-430,-6) scale(1,1)"><path fill="none" stroke="#000000" d="M 824 376 L 650 376" stroke-miterlimit="10"/></g><g transform="translate(-430,-6) scale(1,1)"><path fill="#000000" stroke="none" d="M 813.8373251423759 380.209517756016 L 824 376 L 813.8373251423758 371.790482243984 L 802 376"/></g><g transform="translate(-430,-6) scale(1,1)"><path fill="none" stroke="#000000" d="M 813.8373251423759 380.209517756016 L 824 376 L 813.8373251423758 371.790482243984 L 802 376 L 813.8373251423759 380.209517756016" stroke-miterlimit="10"/></g><g transform="translate(-430,-6) scale(1,1)"><g><path fill="none" stroke="none"/><text fill="#000000" stroke="none" font-family="Arial" font-size="13px" font-style="normal" font-weight="normal" text-decoration="none" x="799" y="370">3</text></g></g><g transform="translate(-430,-6) scale(1,1)"><g><path fill="none" stroke="none"/><text fill="#000000" stroke="none" font-family="Arial" font-size="13px" font-style="normal" font-weight="normal" text-decoration="none" x="668" y="370">1</text></g></g><g transform="translate(-430,-6) scale(1,1)"><rect fill="#C0C0C0" stroke="none" x="447" y="481" width="303" height="250" opacity="0.2"/></g><g transform="translate(-430,-6) scale(1,1)"><rect fill="#ffffff" stroke="none" x="440" y="474" width="303" height="250"/></g><g transform="translate(-430,-6) scale(1,1)"><path fill="none" stroke="#000000" d="M 440 474 L 743 474 L 743 724 L 440 724 L 440 474 Z Z" stroke-miterlimit="10"/></g><g transform="translate(-430,-6) scale(1,1)"><path fill="none" stroke="#000000" d="M 440 499 L 743 499" stroke-miterlimit="10"/></g><g transform="translate(-430,-6) scale(1,1)"><path fill="none" stroke="#000000" d="M 440 642 L 743 642" stroke-miterlimit="10"/></g><g transform="translate(-430,-6) scale(1,1)"><g><path fill="none" stroke="none"/><text fill="#000000" stroke="none" font-family="Arial" font-size="13px" font-style="normal" font-weight="bold" text-decoration="none" x="569.45458984375" y="493.5">Vagues</text></g></g><g transform="translate(-430,-6) scale(1,1)"><g><path fill="none" stroke="none"/><text fill="#000000" stroke="none" font-family="Arial" font-size="13px" font-style="normal" font-weight="normal" text-decoration="none" x="445" y="516.5">#motif: GLuint</text></g></g><g transform="translate(-430,-6) scale(1,1)"><g><path fill="none" stroke="none"/><text fill="#000000" stroke="none" font-family="Arial" font-size="13px" font-style="normal" font-weight="normal" text-decoration="none" x="445" y="531.5">#A: GLfloat</text></g></g><g transform="translate(-430,-6) scale(1,1)"><g><path fill="none" stroke="none"/><text fill="#000000" stroke="none" font-family="Arial" font-size="13px" font-style="normal" font-weight="normal" text-decoration="none" x="445" y="546.5">#kSin: GLfloat</text></g></g><g transform="translate(-430,-6) scale(1,1)"><g><path fill="none" stroke="none"/><text fill="#000000" stroke="none" font-family="Arial" font-size="13px" font-style="normal" font-weight="normal" text-decoration="none" x="445" y="561.5">#kCos: GLfloat</text></g></g><g transform="translate(-430,-6) scale(1,1)"><g><path fill="none" stroke="none"/><text fill="#000000" stroke="none" font-family="Arial" font-size="13px" font-style="normal" font-weight="normal" text-decoration="none" x="445" y="576.5">#unitee: GLfloat</text></g></g><g transform="translate(-430,-6) scale(1,1)"><g><path fill="none" stroke="none"/><text fill="#000000" stroke="none" font-family="Arial" font-size="13px" font-style="normal" font-weight="normal" text-decoration="none" x="445" y="591.5">#delta: GLfloat</text></g></g><g transform="translate(-430,-6) scale(1,1)"><g><path fill="none" stroke="none"/><text fill="#000000" stroke="none" font-family="Arial" font-size="13px" font-style="normal" font-weight="normal" text-decoration="none" x="445" y="606.5">#definition: int</text></g></g><g transform="translate(-430,-6) scale(1,1)"><g><path fill="none" stroke="none"/><text fill="#000000" stroke="none" font-family="Arial" font-size="13px" font-style="normal" font-weight="normal" text-decoration="none" x="445" y="621.5">#hauteur: QVector&lt;QVector&lt;QVector&lt;GLfloat&gt;&gt;&gt;</text></g></g><g transform="translate(-430,-6) scale(1,1)"><g><path fill="none" stroke="none"/><text fill="#000000" stroke="none" font-family="Arial" font-size="13px" font-style="normal" font-weight="normal" text-decoration="none" x="445" y="636.5">#temps: QTime</text></g></g><g transform="translate(-430,-6) scale(1,1)"><g><path fill="none" stroke="none"/><text fill="#000000" stroke="none" font-family="Arial" font-size="13px" font-style="normal" font-weight="normal" text-decoration="none" x="445" y="659.5">+setTexture(texture: QOpenGLTexture*)</text></g></g><g transform="translate(-430,-6) scale(1,1)"><g><path fill="none" stroke="none"/><text fill="#000000" stroke="none" font-family="Arial" font-size="13px" font-style="normal" font-weight="normal" text-decoration="none" x="445" y="674.5">+setDefinition(def: int)</text></g></g><g transform="translate(-430,-6) scale(1,1)"><g><path fill="none" stroke="none"/><text fill="#000000" stroke="none" font-family="Arial" font-size="13px" font-style="normal" font-weight="normal" text-decoration="none" x="445" y="689.5">+genererMotif()</text></g></g><g transform="translate(-430,-6) scale(1,1)"><g><path fill="none" stroke="none"/><text fill="#000000" stroke="none" font-family="Arial" font-size="13px" font-style="normal" font-weight="normal" text-decoration="none" x="445" y="704.5">+libererMotif()</text></g></g><g transform="translate(-430,-6) scale(1,1)"><g><path fill="none" stroke="none"/><text fill="#000000" stroke="none" font-family="Arial" font-size="13px" font-style="normal" font-weight="normal" text-decoration="none" x="445" y="719.5">+getMotif()</text></g></g><g transform="translate(-430,-6) scale(1,1)"><path fill="none" stroke="#000000" d="M 824 664 L 743 664" stroke-miterlimit="10"/></g><g transform="translate(-430,-6) scale(1,1)"><path fill="#000000" stroke="none" d="M 813.8373251423759 668.209517756016 L 824 664 L 813.8373251423758 659.790482243984 L 802 664"/></g><g transform="translate(-430,-6) scale(1,1)"><path fill="none" stroke="#000000" d="M 813.8373251423759 668.209517756016 L 824 664 L 813.8373251423758 659.790482243984 L 802 664 L 813.8373251423759 668.209517756016" stroke-miterlimit="10"/></g><g transform="translate(-430,-6) scale(1,1)"><g><path fill="none" stroke="none"/><text fill="#000000" stroke="none" font-family="Arial" font-size="13px" font-style="normal" font-weight="normal" text-decoration="none" x="799" y="658">1</text></g></g><g transform="translate(-430,-6) scale(1,1)"><g><path fill="none" stroke="none"/><text fill="#000000" stroke="none" font-family="Arial" font-size="13px" font-style="normal" font-weight="normal" text-decoration="none" x="761" y="658">1</text></g></g><g transform="translate(-430,-6) scale(1,1)"><path fill="none" stroke="#000000" d="M 562 396 L 562 474" stroke-miterlimit="10"/></g><g transform="translate(-430,-6) scale(1,1)"><path fill="#000000" stroke="none" d="M 557.790482243984 463.83732514237585 L 562 474 L 566.209517756016 463.83732514237585 L 562 452"/></g><g transform="translate(-430,-6) scale(1,1)"><path fill="none" stroke="#000000" d="M 557.790482243984 463.83732514237585 L 562 474 L 566.209517756016 463.83732514237585 L 562 452 L 557.790482243984 463.83732514237585" stroke-miterlimit="10"/></g><g transform="translate(-430,-6) scale(1,1)"><g><path fill="none" stroke="none"/><text fill="#000000" stroke="none" font-family="Arial" font-size="13px" font-style="normal" font-weight="normal" text-decoration="none" x="546" y="424">1</text></g></g><g transform="translate(-430,-6) scale(1,1)"><g><path fill="none" stroke="none"/><text fill="#000000" stroke="none" font-family="Arial" font-size="13px" font-style="normal" font-weight="normal" text-decoration="none" x="546" y="459">1</text></g></g><g transform="translate(-430,-6) scale(1,1)"><rect fill="#C0C0C0" stroke="none" x="1142" y="511" width="332.4130859375" height="220" opacity="0.2"/></g><g transform="translate(-430,-6) scale(1,1)"><rect fill="#ffffff" stroke="none" x="1135" y="504" width="332.4130859375" height="220"/></g><g transform="translate(-430,-6) scale(1,1)"><path fill="none" stroke="#000000" d="M 1135 504 L 1467.4130859375 504 L 1467.4130859375 724 L 1135 724 L 1135 504 Z Z" stroke-miterlimit="10"/></g><g transform="translate(-430,-6) scale(1,1)"><path fill="none" stroke="#000000" d="M 1135 529 L 1467.4130859375 529" stroke-miterlimit="10"/></g><g transform="translate(-430,-6) scale(1,1)"><path fill="none" stroke="#000000" d="M 1135 582 L 1467.4130859375 582" stroke-miterlimit="10"/></g><g transform="translate(-430,-6) scale(1,1)"><g><path fill="none" stroke="none"/><text fill="#000000" stroke="none" font-family="Arial" font-size="13px" font-style="normal" font-weight="bold" text-decoration="none" x="1280.611572265625" y="523.5">Bornes</text></g></g><g transform="translate(-430,-6) scale(1,1)"><g><path fill="none" stroke="none"/><text fill="#000000" stroke="none" font-family="Arial" font-size="13px" font-style="normal" font-weight="normal" text-decoration="none" x="1140" y="546.5">+min: Vec</text></g></g><g transform="translate(-430,-6) scale(1,1)"><g><path fill="none" stroke="none"/><text fill="#000000" stroke="none" font-family="Arial" font-size="13px" font-style="normal" font-weight="normal" text-decoration="none" x="1140" y="561.5">+max: Vec</text></g></g><g transform="translate(-430,-6) scale(1,1)"><g><path fill="none" stroke="none"/><text fill="#000000" stroke="none" font-family="Arial" font-size="13px" font-style="normal" font-weight="normal" text-decoration="none" x="1140" y="576.5">+pas: float</text></g></g><g transform="translate(-430,-6) scale(1,1)"><g><path fill="none" stroke="none"/><text fill="#000000" stroke="none" font-family="Arial" font-size="13px" font-style="normal" font-weight="normal" text-decoration="none" x="1140" y="599.5">+getMax(): Vec</text></g></g><g transform="translate(-430,-6) scale(1,1)"><g><path fill="none" stroke="none"/><text fill="#000000" stroke="none" font-family="Arial" font-size="13px" font-style="normal" font-weight="normal" text-decoration="none" x="1140" y="614.5">+getMin(): Vec</text></g></g><g transform="translate(-430,-6) scale(1,1)"><g><path fill="none" stroke="none"/><text fill="#000000" stroke="none" font-family="Arial" font-size="13px" font-style="normal" font-weight="normal" text-decoration="none" x="1140" y="629.5">+getCenter(): Vec</text></g></g><g transform="translate(-430,-6) scale(1,1)"><g><path fill="none" stroke="none"/><text fill="#000000" stroke="none" font-family="Arial" font-size="13px" font-style="normal" font-weight="normal" text-decoration="none" x="1140" y="644.5">+getRadius(): qreal</text></g></g><g transform="translate(-430,-6) scale(1,1)"><g><path fill="none" stroke="none"/><text fill="#000000" stroke="none" font-family="Arial" font-size="13px" font-style="normal" font-weight="normal" text-decoration="none" x="1140" y="659.5">+calnbX(): int</text></g></g><g transform="translate(-430,-6) scale(1,1)"><g><path fill="none" stroke="none"/><text fill="#000000" stroke="none" font-family="Arial" font-size="13px" font-style="normal" font-weight="normal" text-decoration="none" x="1140" y="674.5">+calnbY(): int</text></g></g><g transform="translate(-430,-6) scale(1,1)"><g><path fill="none" stroke="none"/><text fill="#000000" stroke="none" font-family="Arial" font-size="13px" font-style="normal" font-weight="normal" text-decoration="none" x="1140" y="689.5">+majZ(qreal z)</text></g></g><g transform="translate(-430,-6) scale(1,1)"><g><path fill="none" stroke="none"/><text fill="#000000" stroke="none" font-family="Arial" font-size="13px" font-style="normal" font-weight="normal" text-decoration="none" x="1140" y="704.5">+recentrer(recentreur: Recentreur)</text></g></g><g transform="translate(-430,-6) scale(1,1)"><g><path fill="none" stroke="none"/><text fill="#000000" stroke="none" font-family="Arial" font-size="13px" font-style="normal" font-weight="normal" text-decoration="none" x="1140" y="719.5">+chargerLignes(Ligne_1, Ligne_2, Ligne_n: QStringList)</text></g></g><g transform="translate(-430,-6) scale(1,1)"><path fill="none" stroke="#000000" d="M 1312 440 L 1312 504" stroke-miterlimit="10"/></g><g transform="translate(-430,-6) scale(1,1)"><path fill="#000000" stroke="none" d="M 1316.2095177560159 450.16267485762415 L 1312 440 L 1307.7904822439841 450.16267485762415 L 1312 462"/></g><g transform="translate(-430,-6) scale(1,1)"><path fill="none" stroke="#000000" d="M 1316.2095177560159 450.16267485762415 L 1312 440 L 1307.7904822439841 450.16267485762415 L 1312 462 L 1316.2095177560159 450.16267485762415" stroke-miterlimit="10"/></g><g transform="translate(-430,-6) scale(1,1)"><g><path fill="none" stroke="none"/><text fill="#000000" stroke="none" font-family="Arial" font-size="13px" font-style="normal" font-weight="normal" text-decoration="none" x="1296" y="468">1</text></g></g><g transform="translate(-430,-6) scale(1,1)"><g><path fill="none" stroke="none"/><text fill="#000000" stroke="none" font-family="Arial" font-size="13px" font-style="normal" font-weight="normal" text-decoration="none" x="1296" y="489">1</text></g></g><g transform="translate(-430,-6) scale(1,1)"><rect fill="#C0C0C0" stroke="none" x="1279" y="23" width="123.51806640625" height="87" opacity="0.2"/></g><g transform="translate(-430,-6) scale(1,1)"><rect fill="#ffffff" stroke="none" x="1272" y="16" width="123.51806640625" height="87"/></g><g transform="translate(-430,-6) scale(1,1)"><path fill="none" stroke="#000000" d="M 1272 16 L 1395.51806640625 16 L 1395.51806640625 103 L 1272 103 L 1272 16 Z Z" stroke-miterlimit="10"/></g><g transform="translate(-430,-6) scale(1,1)"><path fill="none" stroke="#000000" d="M 1272 41 L 1395.51806640625 41" stroke-miterlimit="10"/></g><g transform="translate(-430,-6) scale(1,1)"><path fill="none" stroke="#000000" d="M 1272 94 L 1395.51806640625 94" stroke-miterlimit="10"/></g><g transform="translate(-430,-6) scale(1,1)"><g><path fill="none" stroke="none"/><text fill="#000000" stroke="none" font-family="Arial" font-size="13px" font-style="normal" font-weight="bold" text-decoration="none" x="1301.60498046875" y="35.5">Recentreur</text></g></g><g transform="translate(-430,-6) scale(1,1)"><g><path fill="none" stroke="none"/><text fill="#000000" stroke="none" font-family="Arial" font-size="13px" font-style="normal" font-weight="normal" text-decoration="none" x="1277" y="58.5">+delta: Vec</text></g></g><g transform="translate(-430,-6) scale(1,1)"><g><path fill="none" stroke="none"/><text fill="#000000" stroke="none" font-family="Arial" font-size="13px" font-style="normal" font-weight="normal" text-decoration="none" x="1277" y="73.5">+vector: QVector3D</text></g></g><g transform="translate(-430,-6) scale(1,1)"><g><path fill="none" stroke="none"/><text fill="#000000" stroke="none" font-family="Arial" font-size="13px" font-style="normal" font-weight="normal" text-decoration="none" x="1277" y="88.5">+pas: float</text></g></g><g transform="translate(-430,-6) scale(1,1)"><path fill="none" stroke="#000000" d="M 1187 352 L 1092 352" stroke-miterlimit="10"/></g><g transform="translate(-430,-6) scale(1,1)"><path fill="#000000" stroke="none" d="M 1102.162674857624 347.790482243984 L 1092 352 L 1102.162674857624 356.209517756016 L 1114 352"/></g><g transform="translate(-430,-6) scale(1,1)"><path fill="none" stroke="#000000" d="M 1102.162674857624 347.790482243984 L 1092 352 L 1102.162674857624 356.209517756016 L 1114 352 L 1102.162674857624 347.790482243984" stroke-miterlimit="10"/></g><g transform="translate(-430,-6) scale(1,1)"><g><path fill="none" stroke="none"/><text fill="#000000" stroke="none" font-family="Arial" font-size="13px" font-style="normal" font-weight="normal" text-decoration="none" x="1162" y="346">1</text></g></g><g transform="translate(-430,-6) scale(1,1)"><g><path fill="none" stroke="none"/><text fill="#000000" stroke="none" font-family="Arial" font-size="13px" font-style="normal" font-weight="normal" text-decoration="none" x="1110" y="346">1</text></g></g><g transform="translate(-430,-6) scale(1,1)"><path fill="none" stroke="#000000" d="M 824 280 L 703 280" stroke-miterlimit="10"/></g><g transform="translate(-430,-6) scale(1,1)"><path fill="#000000" stroke="none" d="M 713.1626748576241 275.790482243984 L 703 280 L 713.1626748576241 284.209517756016 L 725 280"/></g><g transform="translate(-430,-6) scale(1,1)"><path fill="none" stroke="#000000" d="M 713.1626748576241 275.790482243984 L 703 280 L 713.1626748576241 284.209517756016 L 725 280 L 713.1626748576241 275.790482243984" stroke-miterlimit="10"/></g><g transform="translate(-430,-6) scale(1,1)"><g><path fill="none" stroke="none"/><text fill="#000000" stroke="none" font-family="Arial" font-size="13px" font-style="normal" font-weight="normal" text-decoration="none" x="799" y="274">1</text></g></g><g transform="translate(-430,-6) scale(1,1)"><g><path fill="none" stroke="none"/><text fill="#000000" stroke="none" font-family="Arial" font-size="13px" font-style="normal" font-weight="normal" text-decoration="none" x="721" y="274">1</text></g></g><g transform="translate(-430,-6) scale(1,1)"><path fill="none" stroke="#000000" d="M 1352 103 L 1352 160" stroke-miterlimit="10"/></g><g transform="translate(-430,-6) scale(1,1)"><path fill="#000000" stroke="none" d="M 1347.7904822439841 149.83732514237585 L 1352 160 L 1356.2095177560159 149.83732514237585 L 1352 138"/></g><g transform="translate(-430,-6) scale(1,1)"><path fill="none" stroke="#000000" d="M 1347.7904822439841 149.83732514237585 L 1352 160 L 1356.2095177560159 149.83732514237585 L 1352 138 L 1347.7904822439841 149.83732514237585" stroke-miterlimit="10"/></g><g transform="translate(-430,-6) scale(1,1)"><g><path fill="none" stroke="none"/><text fill="#000000" stroke="none" font-family="Arial" font-size="13px" font-style="normal" font-weight="normal" text-decoration="none" x="1336" y="131">1</text></g></g><g transform="translate(-430,-6) scale(1,1)"><g><path fill="none" stroke="none"/><text fill="#000000" stroke="none" font-family="Arial" font-size="13px" font-style="normal" font-weight="normal" text-decoration="none" x="1336" y="145">1</text></g></g><g transform="translate(-430,-6) scale(1,1)"><rect fill="#C0C0C0" stroke="none" x="832" y="23" width="264.42333984375" height="145" opacity="0.2"/></g><g transform="translate(-430,-6) scale(1,1)"><rect fill="#ffffff" stroke="none" x="825" y="16" width="264.42333984375" height="145"/></g><g transform="translate(-430,-6) scale(1,1)"><path fill="none" stroke="#000000" d="M 825 16 L 1089.42333984375 16 L 1089.42333984375 161 L 825 161 L 825 16 Z Z" stroke-miterlimit="10"/></g><g transform="translate(-430,-6) scale(1,1)"><path fill="none" stroke="#000000" d="M 825 41 L 1089.42333984375 41" stroke-miterlimit="10"/></g><g transform="translate(-430,-6) scale(1,1)"><path fill="none" stroke="#000000" d="M 825 64 L 1089.42333984375 64" stroke-miterlimit="10"/></g><g transform="translate(-430,-6) scale(1,1)"><g><path fill="none" stroke="none"/><text fill="#000000" stroke="none" font-family="Arial" font-size="13px" font-style="normal" font-weight="bold" text-decoration="none" x="930.833984375" y="35.5">Polyligne</text></g></g><g transform="translate(-430,-6) scale(1,1)"><g><path fill="none" stroke="none"/><text fill="#000000" stroke="none" font-family="Arial" font-size="13px" font-style="normal" font-weight="normal" text-decoration="none" x="830" y="58.5">#points: QList&lt;Vec&gt;</text></g></g><g transform="translate(-430,-6) scale(1,1)"><g><path fill="none" stroke="none"/><text fill="#000000" stroke="none" font-family="Arial" font-size="13px" font-style="normal" font-weight="normal" text-decoration="none" x="830" y="81.5">+getSize(): int</text></g></g><g transform="translate(-430,-6) scale(1,1)"><g><path fill="none" stroke="none"/><text fill="#000000" stroke="none" font-family="Arial" font-size="13px" font-style="normal" font-weight="normal" text-decoration="none" x="830" y="96.5">+getPoint(i: int, recentreur: Recentreur): Vec</text></g></g><g transform="translate(-430,-6) scale(1,1)"><g><path fill="none" stroke="none"/><text fill="#000000" stroke="none" font-family="Arial" font-size="13px" font-style="normal" font-weight="normal" text-decoration="none" x="830" y="111.5">+getPoints(): QList&lt;Vec&gt;*</text></g></g><g transform="translate(-430,-6) scale(1,1)"><g><path fill="none" stroke="none"/><text fill="#000000" stroke="none" font-family="Arial" font-size="13px" font-style="normal" font-weight="normal" text-decoration="none" x="830" y="126.5">+testerAjout(pointE: Vec, pointF: Vec): bool</text></g></g><g transform="translate(-430,-6) scale(1,1)"><g><path fill="none" stroke="none"/><text fill="#000000" stroke="none" font-family="Arial" font-size="13px" font-style="normal" font-weight="normal" text-decoration="none" x="830" y="141.5">+ajoutPoints(pointE: vec, pointF: Vec): bool</text></g></g><g transform="translate(-430,-6) scale(1,1)"><g><path fill="none" stroke="none"/><text fill="#000000" stroke="none" font-family="Arial" font-size="13px" font-style="normal" font-weight="normal" text-decoration="none" x="830" y="156.5">+fusionnerPoly(points2: QList&lt;Vec&gt;*)</text></g></g><g transform="translate(-430,-6) scale(1,1)"><path fill="none" stroke="#000000" d="M 1248 160 L 1248 112 L 1089 112" stroke-miterlimit="10"/></g><g transform="translate(-430,-6) scale(1,1)"><path fill="#000000" stroke="none" d="M 1243.7904822439841 149.83732514237585 L 1248 160 L 1252.2095177560159 149.83732514237585 L 1248 138"/></g><g transform="translate(-430,-6) scale(1,1)"><path fill="none" stroke="#000000" d="M 1243.7904822439841 149.83732514237585 L 1248 160 L 1252.2095177560159 149.83732514237585 L 1248 138 L 1243.7904822439841 149.83732514237585" stroke-miterlimit="10"/></g><g transform="translate(-430,-6) scale(1,1)"><g><path fill="none" stroke="none"/><text fill="#000000" stroke="none" font-family="Arial" font-size="13px" font-style="normal" font-weight="normal" text-decoration="none" x="1224" y="132">0..*</text></g></g><g transform="translate(-430,-6) scale(1,1)"><g><path fill="none" stroke="none"/><text fill="#000000" stroke="none" font-family="Arial" font-size="13px" font-style="normal" font-weight="normal" text-decoration="none" x="1107" y="106">1</text></g></g><g transform="translate(-430,-6) scale(1,1)"><rect fill="#C0C0C0" stroke="none" x="506" y="23" width="184.93798828125" height="145" opacity="0.2"/></g><g transform="translate(-430,-6) scale(1,1)"><rect fill="#ffffff" stroke="none" x="499" y="16" width="184.93798828125" height="145"/></g><g transform="translate(-430,-6) scale(1,1)"><path fill="none" stroke="#000000" d="M 499 16 L 683.93798828125 16 L 683.93798828125 161 L 499 161 L 499 16 Z Z" stroke-miterlimit="10"/></g><g transform="translate(-430,-6) scale(1,1)"><path fill="none" stroke="#000000" d="M 499 41 L 683.93798828125 41" stroke-miterlimit="10"/></g><g transform="translate(-430,-6) scale(1,1)"><path fill="none" stroke="#000000" d="M 499 94 L 683.93798828125 94" stroke-miterlimit="10"/></g><g transform="translate(-430,-6) scale(1,1)"><g><path fill="none" stroke="none"/><text fill="#000000" stroke="none" font-family="Arial" font-size="13px" font-style="normal" font-weight="bold" text-decoration="none" x="539.100830078125" y="35.5">ThreadOuvrirMNT</text></g></g><g transform="translate(-430,-6) scale(1,1)"><g><path fill="none" stroke="none"/><text fill="#000000" stroke="none" font-family="Arial" font-size="13px" font-style="normal" font-weight="normal" text-decoration="none" x="504" y="58.5">#monde: Monde*</text></g></g><g transform="translate(-430,-6) scale(1,1)"><g><path fill="none" stroke="none"/><text fill="#000000" stroke="none" font-family="Arial" font-size="13px" font-style="normal" font-weight="normal" text-decoration="none" x="504" y="73.5">#src: QString</text></g></g><g transform="translate(-430,-6) scale(1,1)"><g><path fill="none" stroke="none"/><text fill="#000000" stroke="none" font-family="Arial" font-size="13px" font-style="normal" font-weight="normal" text-decoration="none" x="504" y="88.5">#t: QTime</text></g></g><g transform="translate(-430,-6) scale(1,1)"><g><path fill="none" stroke="none"/><text fill="#000000" stroke="none" font-family="Arial" font-size="13px" font-style="normal" font-weight="normal" text-decoration="none" x="504" y="111.5">#run()</text></g></g><g transform="translate(-430,-6) scale(1,1)"><g><path fill="none" stroke="none"/><text fill="#000000" stroke="none" font-family="Arial" font-size="13px" font-style="normal" font-weight="normal" text-decoration="none" x="504" y="126.5">+sentText(QString)</text></g></g><g transform="translate(-430,-6) scale(1,1)"><g><path fill="none" stroke="none"/><text fill="#000000" stroke="none" font-family="Arial" font-size="13px" font-style="normal" font-weight="normal" text-decoration="none" x="504" y="141.5">+result(int)</text></g></g><g transform="translate(-430,-6) scale(1,1)"><g><path fill="none" stroke="none"/><text fill="#000000" stroke="none" font-family="Arial" font-size="13px" font-style="normal" font-weight="normal" text-decoration="none" x="504" y="156.5">+terminated()</text></g></g></g></svg>