<?xml version="1.0" encoding="utf-8"?>
<!-- Generator: Adobe Illustrator 19.0.0, SVG Export Plug-In . SVG Version: 6.00 Build 0)  -->
<svg version="1.1" id="Calque_1" xmlns="http://www.w3.org/2000/svg" xmlns:xlink="http://www.w3.org/1999/xlink" x="0px" y="0px"
	 viewBox="-869 -547 675 547" style="enable-background:new -869 -547 675 547;" xml:space="preserve">
<style type="text/css">
	.st0{opacity:0.2;fill:#C0C0C0;enable-background:new    ;}
	.st1{fill:#FFFFFF;}
	.st2{fill:none;stroke:#000000;stroke-miterlimit:10;}
	.st3{font-family:'Arial-BoldMT';}
	.st4{font-size:13px;}
</style>
<g transform="translate(-454,-166) scale(1,1)">
	<rect x="-724" y="-530" class="st0" width="527" height="527"/>
</g>
<g transform="translate(-454,-166) scale(1,1)">
	<rect x="-731" y="-263.5" class="st1" width="527" height="527"/>
</g>
<g transform="translate(-454,-166) scale(1,1)">
	<path class="st2" d="M-731,0h527l0,0H-731L-731,0z"/>
</g>
<g transform="translate(-454,-166) scale(1,1)">
	<g>
		<path class="st2" d="M-1323,0"/>
		<text transform="matrix(1 0 0 0 -515.1931 0)" class="st3 st4">MNTinnondation</text>
	</g>
</g>
<g transform="translate(-454,-166) scale(1,1)">
	<path class="st1" d="M-831.4,0c0,0,3.9,0,8.7,0s8.7,0,8.7,0s-3.9,0-8.7,0S-831.4,0-831.4,0z"/>
</g>
<g transform="translate(-454,-166) scale(1,1)">
	<path class="st2" d="M-831.4,0c0,0,3.9,0,8.7,0s8.7,0,8.7,0s-3.9,0-8.7,0S-831.4,0-831.4,0z"/>
</g>
<g transform="translate(-454,-166) scale(1,1)">
	<path class="st2" d="M-822.7,0L-822.7,0"/>
</g>
<g transform="translate(-454,-166) scale(1,1)">
	<path class="st2" d="M-831.9,0h18.4"/>
</g>
<g transform="translate(-454,-166) scale(1,1)">
	<path class="st2" d="M-822.7,0h-12.8"/>
</g>
<g transform="translate(-454,-166) scale(1,1)">
	<path class="st2" d="M-822.7,0h12.8"/>
</g>
<g transform="translate(-454,-166) scale(1,1)">
	<g>
		<path class="st2" d="M-1323,0"/>
		<text transform="matrix(1 0 0 0 -851.6118 0)" class="st3 st4">Utilisateur</text>
	</g>
</g>
<g transform="translate(-454,-166) scale(1,1)">
	<path class="st0" d="M-577,0c0,0,52.2,0,116.5,0S-344,0-344,0s-52.2,0-116.5,0S-577,0-577,0z"/>
</g>
<g transform="translate(-454,-166) scale(1,1)">
	<path class="st1" d="M-584,0c0,0,52.2,0,116.5,0S-351,0-351,0s-52.2,0-116.5,0S-584,0-584,0z"/>
</g>
<g transform="translate(-454,-166) scale(1,1)">
	<path class="st2" d="M-584,0c0,0,52.2,0,116.5,0S-351,0-351,0s-52.2,0-116.5,0S-584,0-584,0z"/>
</g>
<g transform="translate(-454,-166) scale(1,1)">
	<g>
		<path class="st2" d="M-1323,0"/>
		<text transform="matrix(1 0 0 0 -512.2859 0)" class="st3 st4">Afficher le MNT</text>
	</g>
</g>
<g transform="translate(-454,-166) scale(1,1)">
	<path class="st0" d="M-577,0c0,0,52.2,0,116.5,0S-344,0-344,0s-52.2,0-116.5,0S-577,0-577,0z"/>
</g>
<g transform="translate(-454,-166) scale(1,1)">
	<path class="st1" d="M-584,0c0,0,52.2,0,116.5,0S-351,0-351,0s-52.2,0-116.5,0S-584,0-584,0z"/>
</g>
<g transform="translate(-454,-166) scale(1,1)">
	<path class="st2" d="M-584,0c0,0,52.2,0,116.5,0S-351,0-351,0s-52.2,0-116.5,0S-584,0-584,0z"/>
</g>
<path class="st2" d="M-1323,0"/>
<text transform="matrix(1 0 0 0 -512.2954 0)" class="st3 st4">Inonder le MNT</text>
<g transform="translate(-454,-166) scale(1,1)">
	<path class="st0" d="M-577,0c0,0,52.2,0,116.5,0S-344,0-344,0s-52.2,0-116.5,0S-577,0-577,0z"/>
</g>
<g transform="translate(-454,-166) scale(1,1)">
	<path class="st1" d="M-584,0c0,0,52.2,0,116.5,0S-351,0-351,0s-52.2,0-116.5,0S-584,0-584,0z"/>
</g>
<g transform="translate(-454,-166) scale(1,1)">
	<path class="st2" d="M-584,0c0,0,52.2,0,116.5,0S-351,0-351,0s-52.2,0-116.5,0S-584,0-584,0z"/>
</g>
<g transform="translate(-454,-166) scale(1,1)">
	<g>
		<path class="st2" d="M-1323,0"/>
		<text transform="matrix(1 0 0 0 -515.1899 0)" class="st3 st4">Calculer isoligne</text>
	</g>
</g>
<g transform="translate(-454,-166) scale(1,1)">
	<path class="st0" d="M-577,0c0,0,52.2,0,116.5,0S-344,0-344,0s-52.2,0-116.5,0S-577,0-577,0z"/>
</g>
<g transform="translate(-454,-166) scale(1,1)">
	<path class="st1" d="M-584,0c0,0,52.2,0,116.5,0S-351,0-351,0s-52.2,0-116.5,0S-584,0-584,0z"/>
</g>
<g transform="translate(-454,-166) scale(1,1)">
	<path class="st2" d="M-584,0c0,0,52.2,0,116.5,0S-351,0-351,0s-52.2,0-116.5,0S-584,0-584,0z"/>
</g>
<g transform="translate(-454,-166) scale(1,1)">
	<g>
		<path class="st2" d="M-1323,0"/>
		<text transform="matrix(1 0 0 0 -516.2754 0)" class="st3 st4">Exporter Isoligne</text>
	</g>
</g>
<g transform="translate(-454,-166) scale(1,1)">
	<path class="st2" d="M-785,0h225"/>
</g>
<g transform="translate(-454,-166) scale(1,1)">
	<path class="st2" d="M-567.5,0h7.5h-11"/>
</g>
<g transform="translate(-454,-166) scale(1,1)">
	<path class="st2" d="M-785,0h200"/>
</g>
<g transform="translate(-454,-166) scale(1,1)">
	<path class="st2" d="M-594.6,0h9.6h-10.6"/>
</g>
<g transform="translate(-454,-166) scale(1,1)">
	<path class="st2" d="M-785,0h200"/>
</g>
<g transform="translate(-454,-166) scale(1,1)">
	<path class="st2" d="M-595.8,0h10.8h-9.2"/>
</g>
<g transform="translate(-454,-166) scale(1,1)">
	<path class="st2" d="M-785,0h237"/>
</g>
<g transform="translate(-454,-166) scale(1,1)">
	<path class="st2" d="M-559,0h11h-7.1"/>
</g>
</svg>
